<svg version="1.1" id="Layer_1" xmlns="http://www.w3.org/2000/svg" xmlns:xlink="http://www.w3.org/1999/xlink" x="0px" y="0px"
	 width="100%" viewBox="0 0 1024 1024" enable-background="new 0 0 1024 1024" xml:space="preserve">
<path fill="#FFFFFF" opacity="1.000000" stroke="none" 
	d="
M1025.000000,372.000000 
	C1025.000000,588.500000 1024.988770,804.500000 1025.093628,1020.499939 
	C1025.095459,1024.249268 1024.249146,1025.094238 1020.500000,1025.093140 
	C682.166687,1024.992798 343.833344,1024.992920 5.500028,1025.093262 
	C1.750903,1025.094360 0.905801,1024.249146 0.906913,1020.500000 
	C1.007246,682.166687 1.007246,343.833344 0.906913,5.500028 
	C0.905801,1.750904 1.750901,0.905800 5.500027,0.906912 
	C343.833344,1.007255 682.166687,1.007255 1020.500000,0.906912 
	C1024.249146,0.905800 1025.098022,1.750486 1025.094482,5.500088 
	C1024.980103,127.499985 1025.000000,249.500000 1025.000000,372.000000 
z"/>
<path fill="#282828" opacity="1.000000" stroke="none" 
	d="
M101.194138,433.999939 
	C101.194138,325.343292 101.233650,217.186554 101.082130,109.030121 
	C101.074219,103.384155 103.421059,101.227097 108.910172,101.229614 
	C378.218536,101.353012 647.526978,101.352715 916.835327,101.236259 
	C922.577271,101.233780 924.894714,103.073463 924.891907,109.294594 
	C924.770874,378.436310 924.771118,647.578064 924.891602,916.719788 
	C924.894348,922.873291 922.629456,924.766602 916.820923,924.764099 
	C647.679199,924.647095 378.537445,924.646667 109.395714,924.759399 
	C103.148300,924.761963 101.088364,922.921631 101.093529,916.455627 
	C101.221817,755.803772 101.194130,595.151855 101.194138,433.999939 
z"/>
<path fill="#FEFEFE" opacity="1.000000" stroke="none" 
	d="
M920.519775,437.000305 
	C920.519775,596.311951 920.494324,755.123657 920.634216,913.935181 
	C920.638733,919.050598 919.477600,920.467529 914.193909,920.464722 
	C646.730469,920.322327 379.266907,920.322937 111.803452,920.461365 
	C106.567459,920.464050 105.334045,919.120972 105.336617,913.955444 
	C105.469543,646.658630 105.469040,379.361755 105.339523,112.064926 
	C105.337044,106.941620 106.504288,105.533028 111.783112,105.535828 
	C379.246552,105.677612 646.710083,105.677170 914.173523,105.538063 
	C919.414490,105.535339 920.645874,106.886620 920.638367,112.044479 
	C920.481323,220.196228 920.519714,328.348297 920.519775,437.000305 
z"/>
<path fill="#1F1F1F" opacity="1.000000" stroke="none" 
	d="
M595.000122,428.277435 
	C644.652466,428.277435 693.805054,428.349274 742.956604,428.157684 
	C747.484863,428.140076 748.334961,429.374847 748.329834,433.659576 
	C748.203003,539.461853 748.203369,645.264465 748.331482,751.066772 
	C748.336487,755.213257 747.370667,756.202515 743.206360,756.199219 
	C589.751160,756.078491 436.295898,756.078003 282.840790,756.201355 
	C278.653076,756.204712 277.738342,755.180664 277.743317,751.063782 
	C277.870056,645.261475 277.870209,539.458923 277.745728,433.656616 
	C277.740723,429.404999 278.553101,428.153015 283.091309,428.159698 
	C386.894073,428.312469 490.697113,428.277435 595.000122,428.277435 
z"/>
<path fill="#151515" opacity="1.000000" stroke="none" 
	d="
M529.937866,151.101471 
	C532.860413,146.357025 537.005798,145.736420 541.456421,147.169235 
	C544.855408,148.263504 545.936279,151.243271 546.123840,154.692429 
	C546.256958,157.138107 545.371826,157.949905 542.991882,157.804657 
	C540.337891,157.642715 537.658997,157.894653 535.004395,157.738007 
	C531.303772,157.519669 531.628052,159.332932 532.867126,161.661133 
	C534.655701,165.021790 538.556519,165.678696 542.286316,163.138962 
	C543.218384,162.504288 543.992249,161.063965 545.099365,162.289307 
	C546.381470,163.708252 544.816833,164.755569 543.911560,165.520462 
	C541.072632,167.919159 537.666016,167.714661 534.422729,166.813766 
	C531.273315,165.938995 529.477356,163.443634 529.021851,160.256485 
	C528.599792,157.302490 528.339905,154.279205 529.937866,151.101471 
z"/>
<path fill="#151515" opacity="1.000000" stroke="none" 
	d="
M434.863159,163.671783 
	C434.686340,165.290909 435.453491,166.993011 433.239197,167.001495 
	C431.326782,167.008804 431.805145,165.540253 431.796783,164.503723 
	C431.755280,159.352615 431.775146,154.200974 431.782135,149.049530 
	C431.783447,148.082993 432.277618,146.299637 432.974670,147.039124 
	C435.975006,150.222321 438.201935,146.563721 440.774750,146.514709 
	C445.286163,146.428802 447.807556,148.208557 448.067261,152.696960 
	C448.297302,156.672775 448.170563,160.670074 448.170288,164.657883 
	C448.170197,165.765396 448.473694,167.112610 446.572540,167.015594 
	C444.720612,166.921097 445.124878,165.559479 445.112152,164.488754 
	C445.072693,161.165695 445.047913,157.841217 445.101898,154.518661 
	C445.146820,151.752014 444.536743,149.411499 441.284546,149.185959 
	C438.046906,148.961441 435.650543,150.537628 435.173798,153.767899 
	C434.716614,156.865524 434.939362,160.063477 434.863159,163.671783 
z"/>
<path fill="#151515" opacity="1.000000" stroke="none" 
	d="
M493.106262,160.925140 
	C490.104095,166.890976 484.991486,168.918304 479.921783,166.508026 
	C475.558167,164.433441 473.606415,158.099411 475.610229,152.515610 
	C477.379028,147.586578 481.964539,145.400543 487.328247,146.929337 
	C492.321198,148.352448 494.435059,153.264206 493.106262,160.925140 
z"/>
<path fill="#151515" opacity="1.000000" stroke="none" 
	d="
M517.899231,149.236816 
	C511.537628,150.812424 509.099365,156.900482 512.366638,161.937836 
	C514.531311,165.275238 518.310181,165.411163 522.059998,162.185257 
	C522.815979,161.534973 523.306702,160.498123 524.428406,161.490646 
	C525.470520,162.412704 524.776917,163.280228 524.215332,164.098343 
	C522.010559,167.309937 518.778015,167.633911 515.327942,167.137558 
	C511.354919,166.565948 509.135406,163.891205 508.313599,160.272949 
	C507.314789,155.875290 507.682373,151.512405 511.529785,148.431870 
	C514.670593,145.917099 518.356262,145.930237 521.898743,147.520630 
	C523.253967,148.129059 525.465271,149.286850 524.438354,151.060776 
	C522.942383,153.645035 521.891846,150.797272 520.656006,150.162567 
	C519.922241,149.785690 519.107605,149.566422 517.899231,149.236816 
z"/>
<path fill="#151515" opacity="1.000000" stroke="none" 
	d="
M465.238159,155.191193 
	C466.274353,152.506104 467.143646,150.183640 468.053741,147.877274 
	C468.540894,146.642670 469.714569,146.745636 470.574066,147.038956 
	C471.663055,147.410599 471.090637,148.443405 470.834412,149.132172 
	C468.816620,154.555237 466.862030,160.006836 464.641357,165.347122 
	C463.627472,167.785355 460.309204,167.921173 459.310547,165.548233 
	C457.004028,160.067474 455.028198,154.446747 452.964233,148.865768 
	C452.727753,148.226212 452.058594,147.244034 453.455963,146.995834 
	C454.707062,146.773621 455.598236,147.047852 456.118103,148.483551 
	C457.834351,153.223083 459.701660,157.907913 461.985352,163.847519 
	C463.305237,160.322403 464.196716,157.941452 465.238159,155.191193 
z"/>
<path fill="#080808" opacity="1.000000" stroke="none" 
	d="
M421.387146,140.743530 
	C423.830994,139.853958 424.128876,141.125580 424.121735,142.856506 
	C424.091675,150.145447 424.109222,157.434586 424.107605,164.723648 
	C424.107361,165.893906 424.250031,167.125488 422.421783,167.008148 
	C420.550720,166.888092 421.017181,165.493805 421.018066,164.459625 
	C421.024811,156.676086 421.082275,148.892593 421.387146,140.743530 
z"/>
<path fill="#151515" opacity="1.000000" stroke="none" 
	d="
M499.127991,165.470154 
	C499.112122,160.026077 499.063751,155.035522 499.146545,150.047134 
	C499.165344,148.914978 498.355133,147.134903 500.516937,146.960495 
	C502.767151,146.778976 502.158661,148.567719 502.171082,149.738937 
	C502.224030,154.728134 502.183197,159.718262 502.196838,164.707977 
	C502.205109,167.734451 501.069550,167.800232 499.127991,165.470154 
z"/>
<path fill="#151515" opacity="1.000000" stroke="none" 
	d="
M310.281189,333.996063 
	C309.276276,331.564087 309.304138,329.872375 312.437927,330.086029 
	C314.568512,330.231323 316.717438,330.141937 318.857269,330.105011 
	C320.460968,330.077362 321.833282,330.154388 321.768585,332.361755 
	C321.709290,334.385803 320.345337,334.222260 319.020935,334.220062 
	C316.222107,334.215424 313.423309,334.198273 310.281189,333.996063 
z"/>
<path fill="#151515" opacity="1.000000" stroke="none" 
	d="
M328.537079,330.113678 
	C331.097473,330.114807 333.234192,330.159424 335.368256,330.103485 
	C336.981171,330.061249 337.805237,330.637238 337.766541,332.370026 
	C337.730957,333.964020 336.815308,334.239807 335.514252,334.226776 
	C333.050385,334.202148 330.586060,334.226929 328.121948,334.220673 
	C326.990021,334.217804 325.759766,334.444183 325.626007,332.692078 
	C325.483856,330.830780 326.121643,329.854095 328.537079,330.113678 
z"/>
<path fill="#151515" opacity="1.000000" stroke="none" 
	d="
M347.118591,334.223206 
	C345.550140,334.219971 344.399689,334.204773 343.249481,334.216736 
	C341.931366,334.230408 341.615723,333.430878 341.622650,332.309326 
	C341.630524,331.027740 341.887939,330.063171 343.511383,330.102509 
	C345.975006,330.162262 348.441833,330.147339 350.906158,330.103027 
	C352.538757,330.073730 353.851990,330.225189 353.766632,332.402527 
	C353.686615,334.443359 352.284424,334.199615 350.987762,334.218994 
	C349.837646,334.236206 348.687042,334.222992 347.118591,334.223206 
z"/>
<path fill="#151515" opacity="1.000000" stroke="none" 
	d="
M357.638855,331.896545 
	C361.046570,328.556183 365.030182,330.448639 368.714325,330.376129 
	C370.164093,330.347595 370.095001,332.512329 369.373535,333.623138 
	C368.319885,335.245544 359.058441,334.091309 357.638855,331.896545 
z"/>
<path fill="#151515" opacity="1.000000" stroke="none" 
	d="
M379.969055,330.113373 
	C381.556946,330.116425 382.705719,330.122162 383.854462,330.121918 
	C385.369751,330.121552 385.756653,331.019714 385.760498,332.358459 
	C385.765076,333.943115 384.838684,334.241425 383.528900,334.227325 
	C381.067566,334.200836 378.604889,334.184082 376.144379,334.237427 
	C374.687531,334.269012 373.567932,334.160339 373.596741,332.223724 
	C373.623474,330.428162 374.517975,329.995911 376.084595,330.099274 
	C377.228363,330.174774 378.381134,330.113617 379.969055,330.113373 
z"/>
<path fill="#151515" opacity="1.000000" stroke="none" 
	d="
M391.708923,330.116882 
	C394.590057,330.115662 397.055939,330.128845 399.521698,330.114563 
	C400.840271,330.106934 401.688812,330.483582 401.765656,332.031189 
	C401.856079,333.852814 400.921753,334.268005 399.355774,334.234497 
	C396.891083,334.181732 394.424377,334.228241 391.958557,334.219086 
	C390.993195,334.215515 389.808380,334.382690 389.689728,333.015198 
	C389.583160,331.787079 389.224884,330.225189 391.708923,330.116882 
z"/>
<path fill="#151515" opacity="1.000000" stroke="none" 
	d="
M408.537079,330.113647 
	C411.097473,330.114807 413.234192,330.159454 415.368256,330.103516 
	C416.981171,330.061249 417.805267,330.637238 417.766571,332.370026 
	C417.730988,333.964020 416.815308,334.239838 415.514252,334.226807 
	C413.050385,334.202179 410.586060,334.226959 408.121948,334.220703 
	C406.990021,334.217834 405.759766,334.444183 405.626007,332.692078 
	C405.483856,330.830780 406.121643,329.854095 408.537079,330.113647 
z"/>
<path fill="#151515" opacity="1.000000" stroke="none" 
	d="
M427.118591,334.223206 
	C425.550140,334.219971 424.399689,334.204803 423.249481,334.216736 
	C421.931366,334.230438 421.615784,333.430878 421.622681,332.309326 
	C421.630554,331.027740 421.887939,330.063171 423.511383,330.102509 
	C425.975006,330.162231 428.441833,330.147308 430.906158,330.103027 
	C432.538757,330.073730 433.851990,330.225189 433.766663,332.402527 
	C433.686615,334.443359 432.284424,334.199585 430.987762,334.218994 
	C429.837646,334.236206 428.687042,334.222992 427.118591,334.223206 
z"/>
<path fill="#151515" opacity="1.000000" stroke="none" 
	d="
M444.842346,330.113373 
	C446.893707,330.562622 449.754700,328.835266 449.689056,332.244690 
	C449.623199,335.665100 446.776764,333.866333 445.167847,334.159973 
	C443.579437,334.449890 441.896667,334.210358 440.255493,334.227478 
	C438.902740,334.241577 437.623901,334.366333 437.593903,332.335449 
	C437.561584,330.146423 438.830292,330.018066 440.466431,330.100464 
	C441.776154,330.166412 443.091858,330.113495 444.842346,330.113373 
z"/>
<path fill="#151515" opacity="1.000000" stroke="none" 
	d="
M481.510651,333.494202 
	C478.047058,333.976654 474.779114,334.079346 471.513306,334.228851 
	C469.933441,334.301147 469.543152,333.439819 469.626526,332.077759 
	C469.691956,331.009155 469.918518,330.118195 471.251282,330.122772 
	C474.210724,330.132904 477.172791,330.070007 480.128662,330.178040 
	C482.148285,330.251892 481.686737,331.872559 481.510651,333.494202 
z"/>
<path fill="#151515" opacity="1.000000" stroke="none" 
	d="
M456.656647,334.223419 
	C454.460999,334.425385 453.412415,333.912018 453.615875,331.823151 
	C453.771637,330.223755 454.730316,330.080139 455.998505,330.102386 
	C458.464630,330.145660 460.932861,330.157654 463.398529,330.103516 
	C465.033600,330.067657 465.810852,330.687073 465.765350,332.404388 
	C465.722290,334.029327 464.750122,334.236359 463.476196,334.225037 
	C461.338440,334.206055 459.200378,334.222107 456.656647,334.223419 
z"/>
<path fill="#151515" opacity="1.000000" stroke="none" 
	d="
M293.768555,331.110291 
	C297.204010,329.400757 300.656433,330.379364 304.040466,330.163666 
	C305.261505,330.085846 305.756042,330.903748 305.740784,332.061768 
	C305.729980,332.881439 305.804077,333.967651 304.778625,334.032349 
	C301.197540,334.258270 297.586578,334.628876 294.052399,333.756256 
	C293.751038,333.681854 293.778046,332.277771 293.768555,331.110291 
z"/>
<path fill="#151515" opacity="1.000000" stroke="none" 
	d="
M288.112122,334.200623 
	C285.068298,334.220123 282.437378,334.187134 279.807922,334.235748 
	C278.469177,334.260468 277.608795,333.977936 277.605408,332.374573 
	C277.601868,330.715424 278.213287,330.010773 279.941162,330.087524 
	C282.402252,330.196838 284.891663,329.919708 287.332825,330.165863 
	C290.589722,330.494263 290.666901,332.085480 288.112122,334.200623 
z"/>
<path fill="#151515" opacity="1.000000" stroke="none" 
	d="
M494.457489,334.223267 
	C491.902863,334.222565 489.764343,334.164795 487.630493,334.240356 
	C486.122955,334.293732 485.581696,333.636993 485.612579,332.197418 
	C485.642090,330.823273 486.087463,330.058075 487.623108,330.099487 
	C490.086487,330.165985 492.553040,330.114197 495.018250,330.114807 
	C496.368347,330.115112 497.660156,330.059479 497.766113,332.019501 
	C497.890137,334.314178 496.427124,334.265503 494.457489,334.223267 
z"/>
<path fill="#151515" opacity="1.000000" stroke="none" 
	d="
M508.843445,330.112549 
	C510.892609,330.564240 513.753906,328.824554 513.690002,332.240631 
	C513.625916,335.665985 510.779266,333.866394 509.170624,334.159973 
	C507.581879,334.449921 505.898712,334.210724 504.257202,334.227356 
	C502.905304,334.241058 501.624237,334.368927 501.593903,332.336334 
	C501.561279,330.146942 502.829681,330.017975 504.466522,330.100403 
	C505.776520,330.166382 507.092529,330.113129 508.843445,330.112549 
z"/>
<path fill="#151515" opacity="1.000000" stroke="none" 
	d="
M529.091614,330.451965 
	C530.015198,332.655090 530.182190,334.327209 527.274414,334.236938 
	C524.810547,334.160400 522.342041,334.195709 519.876343,334.232697 
	C518.593445,334.251923 517.625000,334.087555 517.610352,332.442200 
	C517.596008,330.836334 518.084045,330.009155 519.868713,330.087311 
	C522.822144,330.216583 525.782471,330.185394 529.091614,330.451965 
z"/>
<path fill="#151515" opacity="1.000000" stroke="none" 
	d="
M545.511292,333.492920 
	C542.046875,333.976105 538.777649,334.079285 535.510559,334.228760 
	C533.927368,334.301178 533.544861,333.433044 533.626343,332.073578 
	C533.690369,331.003296 533.917297,330.114288 535.251221,330.119171 
	C538.211853,330.130035 541.175171,330.067230 544.132263,330.174683 
	C546.158081,330.248322 545.682617,331.873962 545.511292,333.492920 
z"/>
<path fill="#151515" opacity="1.000000" stroke="none" 
	d="
M556.843018,330.110168 
	C558.892395,330.563324 561.755127,328.825104 561.690002,332.241119 
	C561.624695,335.666290 558.778015,333.866241 557.168945,334.159912 
	C555.579956,334.449951 553.896423,334.209869 552.254639,334.227631 
	C550.899841,334.242249 549.624512,334.363281 549.593262,332.333038 
	C549.559570,330.141022 550.829285,330.015320 552.465271,330.097290 
	C553.775574,330.162933 555.091797,330.110321 556.843018,330.110168 
z"/>
<path fill="#151515" opacity="1.000000" stroke="none" 
	d="
M577.091614,330.451965 
	C578.015198,332.655090 578.182190,334.327240 575.274414,334.236938 
	C572.810547,334.160400 570.342041,334.195709 567.876343,334.232697 
	C566.593445,334.251953 565.625000,334.087555 565.610352,332.442200 
	C565.596008,330.836334 566.084045,330.009186 567.868713,330.087341 
	C570.822083,330.216614 573.782471,330.185394 577.091614,330.451965 
z"/>
<path fill="#151515" opacity="1.000000" stroke="none" 
	d="
M587.954956,334.223206 
	C586.875122,334.223236 586.194397,334.333710 585.564819,334.201172 
	C584.078491,333.888306 581.583191,335.393799 581.634766,332.154938 
	C581.685059,328.998810 584.115601,330.317291 585.637329,330.150360 
	C587.261475,329.972168 588.921326,330.073090 590.563538,330.122131 
	C591.960510,330.163849 593.648987,329.689545 593.763977,332.052002 
	C593.876770,334.367462 592.365967,334.240173 590.842834,334.224640 
	C590.021057,334.216248 589.199158,334.223206 587.954956,334.223206 
z"/>
<path fill="#080808" opacity="1.000000" stroke="none" 
	d="
M283.097931,246.985168 
	C285.532532,247.808304 289.365692,245.182297 289.482361,248.784485 
	C289.617737,252.963715 285.535950,250.180527 283.492218,250.999222 
	C283.209656,251.112411 282.801483,251.114319 282.521576,250.998428 
	C280.898193,250.326187 277.654785,252.721054 277.756561,248.934174 
	C277.854645,245.285202 281.013519,247.691177 283.097931,246.985168 
z"/>
<path fill="#080808" opacity="1.000000" stroke="none" 
	d="
M328.462280,251.014587 
	C326.485748,251.156937 325.560944,250.765472 325.629089,248.903275 
	C325.685120,247.371796 326.319550,246.934814 327.731781,246.969666 
	C330.356049,247.034439 332.983093,247.003021 335.608826,246.984558 
	C336.931976,246.975266 337.693634,247.333755 337.749908,248.908173 
	C337.818634,250.830246 336.766144,251.041443 335.296539,251.020645 
	C333.163483,250.990463 331.029663,251.014114 328.462280,251.014587 
z"/>
<path fill="#080808" opacity="1.000000" stroke="none" 
	d="
M587.102783,251.014832 
	C585.835144,251.014679 585.014648,250.992264 584.195862,251.019348 
	C582.806763,251.065323 581.634338,251.077911 581.622925,249.073090 
	C581.612305,247.201096 582.527283,246.924744 584.051086,246.968536 
	C586.344421,247.034485 588.641296,247.007309 590.936157,246.978317 
	C592.506470,246.958496 593.865601,246.939728 593.747986,249.219467 
	C593.639893,251.314240 592.244995,250.965363 590.993225,251.006256 
	C589.846863,251.043716 588.698242,251.014603 587.102783,251.014832 
z"/>
<path fill="#080808" opacity="1.000000" stroke="none" 
	d="
M312.457581,246.985428 
	C315.028748,246.985870 317.161713,247.009003 319.294006,246.979538 
	C320.760223,246.959274 321.788361,247.166763 321.752136,249.087372 
	C321.713989,251.111191 320.454346,251.009674 319.121857,251.012665 
	C316.825134,251.017853 314.527649,251.048721 312.231995,250.998978 
	C311.182068,250.976242 309.843323,251.427856 309.668762,249.598755 
	C309.496429,247.793655 309.956451,246.708420 312.457581,246.985428 
z"/>
<path fill="#080808" opacity="1.000000" stroke="none" 
	d="
M345.335388,251.014832 
	C343.361206,250.938446 341.477783,251.577927 341.629913,248.785858 
	C341.768097,246.249481 343.550446,247.074799 344.831696,247.013168 
	C346.959351,246.910843 349.095642,246.998566 351.228119,246.982315 
	C352.637909,246.971573 353.761810,247.057144 353.752869,249.019913 
	C353.743835,251.005371 352.567963,251.022522 351.188416,251.015930 
	C349.383942,251.007309 347.579407,251.014465 345.335388,251.014832 
z"/>
<path fill="#080808" opacity="1.000000" stroke="none" 
	d="
M363.992676,251.014832 
	C362.889130,251.014832 362.204498,251.136948 361.583374,250.990311 
	C360.128479,250.646835 357.642273,252.237595 357.667694,248.978699 
	C357.693085,245.723038 360.167145,247.240601 361.627258,247.036453 
	C363.235260,246.811676 364.903412,246.911148 366.536987,247.008942 
	C367.840820,247.087021 369.616058,246.337234 369.736755,248.817810 
	C369.873108,251.619476 367.906677,250.898605 366.407227,251.006760 
	C365.754852,251.053833 365.096252,251.014771 363.992676,251.014832 
z"/>
<path fill="#080808" opacity="1.000000" stroke="none" 
	d="
M381.780701,246.985168 
	C383.626801,247.245972 385.730927,246.146194 385.727814,248.999374 
	C385.724701,251.845062 383.635834,250.898972 382.225281,250.982056 
	C380.101501,251.107117 377.964294,250.983353 375.833923,251.024124 
	C374.535034,251.048981 373.679596,250.839966 373.628784,249.203690 
	C373.574341,247.450363 374.260162,246.881149 375.921997,246.965576 
	C377.720612,247.056961 379.527527,246.985580 381.780701,246.985168 
z"/>
<path fill="#080808" opacity="1.000000" stroke="none" 
	d="
M401.705261,248.999725 
	C398.324554,252.901764 394.165863,250.563293 390.403625,250.701401 
	C389.337067,250.740540 389.337402,247.259384 390.403259,247.298447 
	C394.165680,247.436386 398.324127,245.099365 401.705261,248.999725 
z"/>
<path fill="#080808" opacity="1.000000" stroke="none" 
	d="
M405.705902,249.835953 
	C405.701324,248.298370 405.423523,246.988831 407.219299,246.991348 
	C410.011902,246.995270 412.804596,247.003540 415.597076,246.984589 
	C416.914948,246.975647 417.735168,247.311172 417.743774,248.901230 
	C417.751678,250.355499 417.254517,251.124863 415.795441,250.994614 
	C412.447205,250.695694 408.993622,251.816849 405.705902,249.835953 
z"/>
<path fill="#080808" opacity="1.000000" stroke="none" 
	d="
M424.457581,246.985428 
	C427.028748,246.985870 429.161713,247.008957 431.293976,246.979507 
	C432.760223,246.959244 433.788391,247.166763 433.752167,249.087372 
	C433.714020,251.111191 432.454346,251.009674 431.121857,251.012680 
	C428.825134,251.017853 426.527649,251.048721 424.231995,250.998978 
	C423.182068,250.976242 421.843353,251.427856 421.668762,249.598755 
	C421.496429,247.793655 421.956451,246.708420 424.457581,246.985428 
z"/>
<path fill="#080808" opacity="1.000000" stroke="none" 
	d="
M442.213562,251.014832 
	C440.366760,250.484329 437.801270,252.434845 437.683929,249.170853 
	C437.553406,245.540726 440.367126,247.346664 441.931946,247.035950 
	C443.194275,246.785324 444.566254,246.841400 445.852753,247.022812 
	C447.347504,247.233582 449.804718,245.876740 449.713226,249.125000 
	C449.633179,251.968216 447.476410,250.792267 446.095886,250.983124 
	C444.969391,251.138870 443.804169,251.014832 442.213562,251.014832 
z"/>
<path fill="#080808" opacity="1.000000" stroke="none" 
	d="
M453.705902,249.835953 
	C453.701324,248.298370 453.423523,246.988831 455.219299,246.991348 
	C458.011902,246.995255 460.804596,247.003540 463.597076,246.984589 
	C464.914948,246.975647 465.735168,247.311172 465.743774,248.901230 
	C465.751678,250.355499 465.254517,251.124863 463.795441,250.994614 
	C460.447205,250.695679 456.993622,251.816849 453.705902,249.835953 
z"/>
<path fill="#080808" opacity="1.000000" stroke="none" 
	d="
M472.462280,251.014587 
	C470.485748,251.156937 469.560974,250.765472 469.629089,248.903275 
	C469.685150,247.371796 470.319550,246.934830 471.731781,246.969681 
	C474.356049,247.034439 476.983093,247.003021 479.608826,246.984558 
	C480.931976,246.975266 481.693604,247.333755 481.749908,248.908173 
	C481.818604,250.830246 480.766144,251.041443 479.296539,251.020645 
	C477.163483,250.990463 475.029663,251.014114 472.462280,251.014587 
z"/>
<path fill="#080808" opacity="1.000000" stroke="none" 
	d="
M490.208374,246.985168 
	C491.966522,246.985275 493.282166,246.921417 494.588715,247.003357 
	C495.913544,247.086426 497.654877,246.402817 497.738647,248.870468 
	C497.835175,251.712875 495.815826,250.910721 494.354034,250.993484 
	C492.719666,251.086029 491.063232,251.141785 489.440247,250.977676 
	C487.936493,250.825638 485.480743,252.093155 485.666779,248.836899 
	C485.853241,245.573166 488.357086,247.511185 490.208374,246.985168 
z"/>
<path fill="#080808" opacity="1.000000" stroke="none" 
	d="
M502.738068,250.953079 
	C501.070160,248.515152 501.040405,246.841568 504.468262,246.970535 
	C506.600250,247.050751 508.737640,246.988297 510.872620,246.984772 
	C512.379333,246.982285 513.853088,246.810852 513.750366,249.163345 
	C513.660095,251.229599 512.329102,250.999084 511.042480,251.007980 
	C508.414948,251.026138 505.787231,251.009537 502.738068,250.953079 
z"/>
<path fill="#080808" opacity="1.000000" stroke="none" 
	d="
M523.098022,246.985168 
	C525.532532,247.808350 529.365723,245.182220 529.482300,248.784576 
	C529.617554,252.963760 525.535889,250.180511 523.492126,250.999222 
	C523.209534,251.112411 522.801331,251.114319 522.521423,250.998413 
	C520.898132,250.326111 517.654541,252.721191 517.756592,248.934021 
	C517.854858,245.285049 521.013672,247.691269 523.098022,246.985168 
z"/>
<path fill="#080808" opacity="1.000000" stroke="none" 
	d="
M541.783813,251.014832 
	C539.531799,251.014435 537.724976,250.943604 535.926208,251.034271 
	C534.269104,251.117813 533.573975,250.557434 533.628723,248.800339 
	C533.679565,247.168228 534.526428,246.949844 535.829895,246.975601 
	C537.960266,247.017715 540.097656,246.891556 542.221313,247.018387 
	C543.629578,247.102509 545.722107,246.148468 545.727478,248.996033 
	C545.732971,251.845795 543.632141,250.758560 541.783813,251.014832 
z"/>
<path fill="#080808" opacity="1.000000" stroke="none" 
	d="
M561.705322,248.999756 
	C558.324585,252.901962 554.165894,250.563141 550.403625,250.701492 
	C549.337158,250.740692 549.337280,247.259369 550.403259,247.298447 
	C554.165649,247.436401 558.324158,245.099228 561.705322,248.999756 
z"/>
<path fill="#080808" opacity="1.000000" stroke="none" 
	d="
M568.462402,251.014587 
	C566.485901,251.156921 565.560913,250.765594 565.629089,248.903351 
	C565.685120,247.371964 566.319458,246.934799 567.731689,246.969666 
	C570.356018,247.034424 572.983032,247.003006 575.608704,246.984558 
	C576.931763,246.975266 577.693481,247.333603 577.749817,248.908081 
	C577.818604,250.830048 576.766418,251.041458 575.296692,251.020645 
	C573.163635,250.990417 571.029785,251.014114 568.462402,251.014587 
z"/>
<path fill="#080808" opacity="1.000000" stroke="none" 
	d="
M302.681763,251.014496 
	C299.935547,251.012833 297.640594,250.991043 295.346161,251.016739 
	C294.078491,251.030945 293.664459,250.399643 293.651733,249.206757 
	C293.638031,247.924744 293.765289,246.942642 295.424530,246.976105 
	C298.046021,247.028961 300.669708,246.964813 303.291809,246.998398 
	C304.397614,247.012558 305.597107,246.821579 305.738831,248.586304 
	C305.904083,250.643982 304.906982,251.177658 302.681763,251.014496 
z"/>
<path fill="#151515" opacity="1.000000" stroke="none" 
	d="
M604.188538,330.163940 
	C605.500122,331.552277 605.986572,333.526245 604.425659,334.009125 
	C602.507935,334.602386 600.204773,334.055786 598.096619,333.782745 
	C597.853760,333.751312 597.661438,332.315857 597.680359,331.537079 
	C597.703125,330.597290 598.306396,330.088715 599.320190,330.110413 
	C600.816284,330.142395 602.313477,330.119049 604.188538,330.163940 
z"/>
<path fill="#080808" opacity="1.000000" stroke="none" 
	d="
M599.064636,250.990967 
	C597.124084,249.620071 596.885193,247.622314 598.721313,247.210861 
	C600.680054,246.771927 603.396790,245.866852 605.040283,247.922653 
	C605.637451,248.669662 606.008362,250.992844 603.476685,251.005783 
	C602.165527,251.012497 600.854431,251.009827 599.064636,250.990967 
z"/>
<path fill="#333333" opacity="1.000000" stroke="none" 
	d="
M756.544922,844.656982 
	C757.058167,846.638977 757.975525,848.700745 754.842346,848.708862 
	C753.278442,848.712952 752.937866,847.903625 752.884827,846.550232 
	C752.778992,843.846924 754.580444,844.280090 756.544922,844.656982 
z"/>
<path fill="#333333" opacity="1.000000" stroke="none" 
	d="
M683.002930,848.689453 
	C679.937378,848.221252 680.612122,846.141602 681.305481,844.936829 
	C681.964172,843.792419 684.031433,843.793335 684.691589,844.933228 
	C685.388611,846.136780 686.063110,848.213013 683.002930,848.689453 
z"/>
<path fill="#333333" opacity="1.000000" stroke="none" 
	d="
M688.913391,846.909424 
	C688.781189,843.793579 690.754578,843.937866 692.226746,844.527710 
	C693.703552,845.119263 693.509583,847.167786 692.772339,847.954529 
	C691.612183,849.192871 689.879333,849.500427 688.913391,846.909424 
z"/>
<path fill="#333333" opacity="1.000000" stroke="none" 
	d="
M698.996948,844.316650 
	C702.062866,844.784485 701.387817,846.863464 700.694031,848.068909 
	C700.034973,849.214050 697.969604,849.213196 697.308899,848.072571 
	C696.611389,846.868347 695.936584,844.792847 698.996948,844.316650 
z"/>
<path fill="#333333" opacity="1.000000" stroke="none" 
	d="
M704.913391,846.909424 
	C704.781189,843.793579 706.754578,843.937866 708.226746,844.527710 
	C709.703552,845.119263 709.509583,847.167786 708.772400,847.954529 
	C707.612122,849.192810 705.879333,849.500427 704.913391,846.909424 
z"/>
<path fill="#333333" opacity="1.000000" stroke="none" 
	d="
M716.967407,847.706177 
	C715.130615,848.878174 713.337524,849.716370 712.935303,846.766479 
	C712.777527,845.608887 712.834595,844.474426 714.528625,844.297791 
	C716.979431,844.042358 717.283325,845.421143 716.967407,847.706177 
z"/>
<path fill="#333333" opacity="1.000000" stroke="none" 
	d="
M725.086609,846.095581 
	C725.219910,849.210632 723.246277,849.068848 721.773987,848.479553 
	C720.298401,847.888916 720.489441,845.840149 721.226929,845.052246 
	C722.386719,843.813293 724.119324,843.505676 725.086609,846.095581 
z"/>
<path fill="#333333" opacity="1.000000" stroke="none" 
	d="
M730.183960,848.649719 
	C728.652588,847.017273 727.989990,845.360168 730.361389,844.409241 
	C731.309753,844.028870 732.797607,843.960510 733.046204,845.639526 
	C733.318909,847.480835 733.075684,849.020325 730.183960,848.649719 
z"/>
<path fill="#333333" opacity="1.000000" stroke="none" 
	d="
M737.032471,845.298950 
	C738.869019,844.129761 740.663330,843.289917 741.064697,846.240295 
	C741.222168,847.398132 741.164185,848.532166 739.470520,848.708618 
	C737.018372,848.963989 736.717773,847.582397 737.032471,845.298950 
z"/>
<path fill="#333333" opacity="1.000000" stroke="none" 
	d="
M748.967407,847.706177 
	C747.130615,848.878174 745.337463,849.716370 744.935303,846.766479 
	C744.777527,845.608887 744.834595,844.474426 746.528625,844.297791 
	C748.979431,844.042297 749.283325,845.421143 748.967407,847.706177 
z"/>
<path fill="#333333" opacity="1.000000" stroke="none" 
	d="
M668.967407,847.706177 
	C667.130615,848.878174 665.337524,849.716370 664.935303,846.766479 
	C664.777527,845.608887 664.834595,844.474487 666.528625,844.297852 
	C668.979431,844.042358 669.283325,845.421143 668.967407,847.706177 
z"/>
<path fill="#333333" opacity="1.000000" stroke="none" 
	d="
M765.086670,846.094971 
	C765.220154,849.210571 763.246399,849.069092 761.773804,848.479309 
	C760.298218,847.888428 760.489502,845.839539 761.227234,845.051514 
	C762.386780,843.812988 764.119934,843.502808 765.086670,846.094971 
z"/>
<path fill="#333333" opacity="1.000000" stroke="none" 
	d="
M769.032288,847.702515 
	C768.716431,845.413452 769.023132,844.035156 771.473816,844.291565 
	C773.169861,844.468994 773.221069,845.608154 773.064697,846.764099 
	C772.664917,849.719360 770.870056,848.877625 769.032288,847.702515 
z"/>
<path fill="#333333" opacity="1.000000" stroke="none" 
	d="
M781.086548,846.901062 
	C780.127441,849.505554 778.389587,849.189575 777.228882,847.957642 
	C776.488220,847.171509 776.299316,845.118469 777.766907,844.524719 
	C779.233643,843.931396 781.213379,843.779724 781.086548,846.901062 
z"/>
<path fill="#333333" opacity="1.000000" stroke="none" 
	d="
M786.191284,844.349731 
	C789.094910,843.980591 789.316284,845.537781 789.043823,847.371094 
	C788.794006,849.052063 787.296997,848.979980 786.353821,848.595581 
	C783.997375,847.635437 784.643494,845.980225 786.191284,844.349731 
z"/>
<path fill="#333333" opacity="1.000000" stroke="none" 
	d="
M797.086548,846.901062 
	C796.127441,849.505554 794.389648,849.189575 793.228882,847.957581 
	C792.488281,847.171448 792.299316,845.118408 793.766907,844.524719 
	C795.233643,843.931396 797.213379,843.779724 797.086548,846.901062 
z"/>
<path fill="#333333" opacity="1.000000" stroke="none" 
	d="
M804.545654,844.651794 
	C805.056396,846.634949 805.978516,848.700256 802.841919,848.708923 
	C801.275146,848.713257 800.938049,847.900085 800.884766,846.547119 
	C800.778137,843.842957 802.578918,844.272217 804.545654,844.651794 
z"/>
<path fill="#333333" opacity="1.000000" stroke="none" 
	d="
M809.469971,844.641724 
	C811.459106,844.256592 813.231567,843.878113 813.117065,846.567444 
	C813.058716,847.937317 812.686707,848.720703 811.137512,848.707642 
	C807.997009,848.681091 808.952332,846.609741 809.469971,844.641724 
z"/>
<path fill="#333333" opacity="1.000000" stroke="none" 
	d="
M819.002930,848.689453 
	C815.935303,848.219604 816.612915,846.138123 817.305420,844.932373 
	C817.964172,843.785522 820.031372,843.786255 820.691772,844.928772 
	C821.388000,846.133362 822.065002,848.211365 819.002930,848.689453 
z"/>
<path fill="#333333" opacity="1.000000" stroke="none" 
	d="
M829.086548,846.901062 
	C828.127441,849.505554 826.389587,849.189575 825.228882,847.957642 
	C824.488220,847.171509 824.299316,845.118408 825.766907,844.524719 
	C827.233643,843.931396 829.213379,843.779724 829.086548,846.901062 
z"/>
<path fill="#333333" opacity="1.000000" stroke="none" 
	d="
M833.032227,845.295410 
	C834.870667,844.120422 836.664429,843.283325 837.064758,846.236694 
	C837.221680,847.394287 837.167358,848.531433 835.471252,848.708435 
	C833.015503,848.964783 832.718445,847.579163 833.032227,845.295410 
z"/>
<path fill="#333333" opacity="1.000000" stroke="none" 
	d="
M660.529419,848.359009 
	C658.542847,848.742004 656.769958,849.124146 656.882935,846.435852 
	C656.940552,845.065186 657.316101,844.286255 658.862183,844.298645 
	C661.999084,844.323914 661.050476,846.390930 660.529419,848.359009 
z"/>
<path fill="#333333" opacity="1.000000" stroke="none" 
	d="
M515.002930,848.689453 
	C511.937378,848.221252 512.612061,846.141602 513.305481,844.936768 
	C513.964111,843.792419 516.031433,843.793335 516.691589,844.933228 
	C517.388611,846.136780 518.063110,848.213013 515.002930,848.689453 
z"/>
<path fill="#333333" opacity="1.000000" stroke="none" 
	d="
M524.544922,844.656982 
	C525.058167,846.638977 525.975525,848.700745 522.842346,848.708923 
	C521.278442,848.712952 520.937805,847.903625 520.884827,846.550232 
	C520.778992,843.846924 522.580444,844.280090 524.544922,844.656982 
z"/>
<path fill="#333333" opacity="1.000000" stroke="none" 
	d="
M532.967529,845.301147 
	C533.284302,847.589905 532.973877,848.964111 530.526855,848.708618 
	C528.833008,848.531799 528.778320,847.395447 528.935303,846.239380 
	C529.336182,843.287170 531.131714,844.131775 532.967529,845.301147 
z"/>
<path fill="#333333" opacity="1.000000" stroke="none" 
	d="
M539.816040,844.356628 
	C541.349365,845.989380 542.007935,847.645752 539.638672,848.596924 
	C538.690491,848.977539 537.203186,849.045654 536.954102,847.366455 
	C536.680725,845.523865 536.925354,843.986389 539.816040,844.356628 
z"/>
<path fill="#333333" opacity="1.000000" stroke="none" 
	d="
M549.086548,846.903320 
	C548.127380,849.505188 546.389709,849.188171 545.229492,847.959595 
	C544.489136,847.175598 544.298279,845.124146 545.767334,844.531067 
	C547.231934,843.939697 549.211792,843.782898 549.086548,846.903320 
z"/>
<path fill="#333333" opacity="1.000000" stroke="none" 
	d="
M556.967529,845.301147 
	C557.284302,847.589905 556.973877,848.964111 554.526855,848.708618 
	C552.833008,848.531799 552.778259,847.395447 552.935242,846.239380 
	C553.336182,843.287170 555.131714,844.131775 556.967529,845.301147 
z"/>
<path fill="#333333" opacity="1.000000" stroke="none" 
	d="
M564.529419,848.359009 
	C562.542847,848.742004 560.769958,849.124146 560.882935,846.435852 
	C560.940552,845.065186 561.316101,844.286255 562.862183,844.298645 
	C565.999084,844.323914 565.050476,846.390930 564.529419,848.359009 
z"/>
<path fill="#333333" opacity="1.000000" stroke="none" 
	d="
M571.808350,848.650269 
	C568.908997,849.019165 568.682251,847.466370 568.955994,845.632751 
	C569.206665,843.954102 570.702454,844.027283 571.645508,844.410400 
	C574.003418,845.368408 573.356140,847.021545 571.808350,848.650269 
z"/>
<path fill="#333333" opacity="1.000000" stroke="none" 
	d="
M580.544922,844.656982 
	C581.058167,846.638977 581.975525,848.700745 578.842346,848.708862 
	C577.278442,848.712952 576.937866,847.903625 576.884888,846.550232 
	C576.778992,843.846924 578.580444,844.280090 580.544922,844.656982 
z"/>
<path fill="#333333" opacity="1.000000" stroke="none" 
	d="
M585.454956,848.348938 
	C584.940918,846.365784 584.025452,844.304749 587.158142,844.297241 
	C588.721741,844.293457 589.062683,845.102295 589.115295,846.456116 
	C589.220215,849.158691 587.419373,848.726501 585.454956,848.348938 
z"/>
<path fill="#333333" opacity="1.000000" stroke="none" 
	d="
M596.967407,847.706177 
	C595.130615,848.878174 593.337463,849.716370 592.935303,846.766479 
	C592.777527,845.608887 592.834595,844.474426 594.528625,844.297852 
	C596.979431,844.042358 597.283325,845.421143 596.967407,847.706177 
z"/>
<path fill="#333333" opacity="1.000000" stroke="none" 
	d="
M602.183960,848.649719 
	C600.652588,847.017273 599.990051,845.360291 602.361389,844.409302 
	C603.309814,844.028992 604.797546,843.960510 605.046204,845.639526 
	C605.318848,847.480835 605.075684,849.020325 602.183960,848.649719 
z"/>
<path fill="#333333" opacity="1.000000" stroke="none" 
	d="
M613.086609,846.095581 
	C613.219910,849.210632 611.246277,849.068848 609.773987,848.479553 
	C608.298401,847.888977 608.489502,845.840149 609.227051,845.052368 
	C610.386719,843.813293 612.119324,843.505676 613.086609,846.095581 
z"/>
<path fill="#333333" opacity="1.000000" stroke="none" 
	d="
M617.032471,845.298950 
	C618.869019,844.129761 620.663330,843.289917 621.064697,846.240295 
	C621.222168,847.398132 621.164185,848.532166 619.470520,848.708557 
	C617.018372,848.963928 616.717773,847.582397 617.032471,845.298950 
z"/>
<path fill="#333333" opacity="1.000000" stroke="none" 
	d="
M627.808350,848.650269 
	C624.908997,849.019165 624.682251,847.466370 624.955994,845.632751 
	C625.206665,843.954102 626.702454,844.027283 627.645447,844.410461 
	C630.003418,845.368408 629.356140,847.021545 627.808350,848.650269 
z"/>
<path fill="#333333" opacity="1.000000" stroke="none" 
	d="
M636.967529,845.301147 
	C637.284302,847.589905 636.973877,848.964111 634.526855,848.708618 
	C632.833008,848.531799 632.778259,847.395447 632.935242,846.239380 
	C633.336182,843.287170 635.131714,844.131775 636.967529,845.301147 
z"/>
<path fill="#333333" opacity="1.000000" stroke="none" 
	d="
M641.032471,845.298950 
	C642.869019,844.129761 644.663330,843.289917 645.064697,846.240295 
	C645.222168,847.398132 645.164185,848.532166 643.470520,848.708557 
	C641.018372,848.963928 640.717773,847.582397 641.032471,845.298950 
z"/>
<path fill="#333333" opacity="1.000000" stroke="none" 
	d="
M650.183960,848.649719 
	C648.652588,847.017273 647.989990,845.360229 650.361389,844.409302 
	C651.309753,844.028931 652.797607,843.960510 653.046204,845.639526 
	C653.318909,847.480835 653.075684,849.020325 650.183960,848.649719 
z"/>
<path fill="#333333" opacity="1.000000" stroke="none" 
	d="
M674.192139,844.355957 
	C677.091248,843.987488 677.318054,845.539368 677.043579,847.373596 
	C676.792358,849.052673 675.296265,848.979248 674.353943,848.595764 
	C671.998779,847.637146 672.641602,845.984680 674.192139,844.355957 
z"/>
<path fill="#151515" opacity="1.000000" stroke="none" 
	d="
M501.095306,138.952820 
	C503.061157,139.934418 503.509827,141.172272 502.010254,142.500519 
	C501.029083,143.369568 499.732574,143.311111 499.111633,142.048447 
	C498.339478,140.478317 498.615173,139.140900 501.095306,138.952820 
z"/>
<path fill="#FFFFFF" opacity="1.000000" stroke="none" 
	d="
M506.000183,602.629272 
	C540.493042,602.629272 574.486267,602.706848 608.478149,602.527283 
	C612.534912,602.505859 613.341370,603.726074 613.315491,607.515503 
	C613.149170,631.842529 613.146973,656.171936 613.320190,680.498901 
	C613.346313,684.164612 612.542358,685.186218 608.727051,685.178223 
	C544.907410,685.044312 481.087341,685.044250 417.267761,685.178223 
	C413.450897,685.186279 412.649048,684.162170 412.675110,680.497864 
	C412.848083,656.170898 412.846375,631.841492 412.679535,607.514465 
	C412.653534,603.721680 413.464844,602.500244 417.519287,602.526672 
	C446.845215,602.718140 476.172974,602.629395 506.000183,602.629272 
z"/>
<path fill="#FFFFFF" opacity="1.000000" stroke="none" 
	d="
M528.000000,517.061035 
	C555.317139,517.061035 582.134705,517.129395 608.950989,516.977539 
	C612.430359,516.957825 613.340759,517.823181 613.317444,521.332642 
	C613.153442,545.983398 613.171570,570.636047 613.301819,595.287170 
	C613.318909,598.523682 612.468933,599.447327 609.178772,599.442322 
	C545.050964,599.345520 480.922852,599.344421 416.795013,599.444275 
	C413.466980,599.449463 412.679840,598.462830 412.696045,595.264648 
	C412.820953,570.613525 412.844086,545.960876 412.675995,521.310242 
	C412.651825,517.764893 413.621796,516.968140 417.066833,516.980347 
	C453.877533,517.110291 490.688843,517.061096 528.000000,517.061035 
z"/>
<path fill="#FEFEFE" opacity="1.000000" stroke="none" 
	d="
M613.233093,445.002197 
	C613.233093,466.832642 613.115723,488.163971 613.339783,509.491699 
	C613.380737,513.390137 612.203796,514.027466 608.626404,514.021240 
	C544.802979,513.909912 480.979309,513.914673 417.155853,514.013611 
	C413.834198,514.018738 412.639130,513.471191 412.666656,509.778717 
	C412.850739,485.117188 412.845642,460.453003 412.673431,435.791290 
	C412.647217,432.042053 413.627991,431.148743 417.369537,431.156342 
	C481.026276,431.285461 544.683350,431.282501 608.340088,431.165009 
	C612.146912,431.157990 613.766479,431.981110 613.295715,436.010284 
	C612.969238,438.805084 613.233032,441.668854 613.233093,445.002197 
z"/>
<path fill="#FEFEFE" opacity="1.000000" stroke="none" 
	d="
M613.233093,725.000122 
	C613.232971,733.494629 613.123718,741.491394 613.292603,749.482300 
	C613.350769,752.234131 612.658936,753.150513 609.749695,753.146790 
	C545.294189,753.065308 480.838623,753.069702 416.383179,753.136414 
	C413.680389,753.139221 412.676117,752.559143 412.696014,749.620178 
	C412.825745,730.467590 412.815552,711.313354 412.706360,692.160522 
	C412.689850,689.263794 413.258270,688.167603 416.496429,688.172791 
	C480.785278,688.275208 545.074280,688.269836 609.363220,688.184082 
	C612.378479,688.180054 613.359253,688.894409 613.304871,692.023804 
	C613.116638,702.846375 613.232788,713.674194 613.233093,725.000122 
z"/>
<path fill="#FEFEFE" opacity="1.000000" stroke="none" 
	d="
M616.430481,669.998535 
	C616.430603,648.670044 616.510437,627.841064 616.352539,607.013916 
	C616.326111,603.530273 617.275940,602.540955 620.784790,602.551270 
	C660.941528,602.669617 701.098938,602.673096 741.255676,602.544250 
	C744.716553,602.533142 745.283203,603.734985 745.270020,606.805725 
	C745.162964,631.632690 745.153198,656.460632 745.282227,681.287354 
	C745.298218,684.359802 744.520081,685.166138 741.422485,685.157654 
	C701.099060,685.047668 660.775085,685.044006 620.451721,685.159851 
	C617.135559,685.169373 616.109131,684.237915 616.368164,680.991150 
	C616.645508,677.514160 616.430603,673.997803 616.430481,669.998535 
z"/>
<path fill="#FEFEFE" opacity="1.000000" stroke="none" 
	d="
M280.785431,628.999878 
	C280.785736,621.001709 280.880066,613.501770 280.734192,606.006470 
	C280.684692,603.463867 281.328278,602.565430 284.041107,602.570862 
	C324.697540,602.653198 365.354279,602.654297 406.010712,602.572449 
	C408.916962,602.566650 409.622955,603.569885 409.613464,606.314514 
	C409.526489,631.474670 409.524841,656.635315 409.617218,681.795471 
	C409.626892,684.434082 408.827545,685.139587 406.242584,685.135010 
	C365.586090,685.062561 324.929260,685.032227 284.273132,685.174805 
	C280.688599,685.187378 280.742706,683.554688 280.752289,680.987061 
	C280.816315,663.824890 280.785461,646.662354 280.785431,628.999878 
z"/>
<path fill="#FEFEFE" opacity="1.000000" stroke="none" 
	d="
M616.430481,528.006226 
	C616.430603,517.059570 616.430603,517.059570 627.016357,517.059570 
	C664.823425,517.059570 702.630737,517.122375 740.437195,516.965149 
	C744.342773,516.948914 745.336121,517.936829 745.305664,521.835205 
	C745.116211,546.150208 745.126099,570.467957 745.299622,594.783203 
	C745.325989,598.475708 744.454773,599.481262 740.670349,599.466919 
	C700.865295,599.315979 661.059082,599.314148 621.254028,599.465271 
	C617.262756,599.480408 616.308350,598.332458 616.341003,594.459473 
	C616.526001,572.476257 616.430542,550.490723 616.430481,528.006226 
z"/>
<path fill="#FEFEFE" opacity="1.000000" stroke="none" 
	d="
M284.133331,517.059753 
	C324.597046,517.059570 364.570892,517.130249 404.543640,516.953979 
	C408.701385,516.935669 409.709442,517.930237 409.671387,522.084961 
	C409.450256,546.233643 409.462982,570.386169 409.662048,594.535217 
	C409.695129,598.550598 408.524292,599.470581 404.664612,599.457397 
	C364.858093,599.320923 325.050690,599.308655 285.244415,599.475159 
	C281.311035,599.491638 280.685303,598.242004 280.706879,594.701233 
	C280.856140,570.218384 280.775330,545.734131 280.805054,521.250366 
	C280.807404,519.306396 279.857849,516.525024 284.133331,517.059753 
z"/>
<path fill="#FDFDFD" opacity="1.000000" stroke="none" 
	d="
M703.000000,513.941956 
	C675.337341,513.941895 648.174194,513.871887 621.012451,514.026001 
	C617.417358,514.046387 616.286621,513.368103 616.320435,509.479340 
	C616.533325,484.984802 616.491089,460.487152 616.358337,435.991455 
	C616.339233,432.460968 617.023987,431.135010 620.963745,431.150543 
	C660.957275,431.308655 700.951782,431.297089 740.945435,431.161652 
	C744.533447,431.149506 745.305542,432.225983 745.286499,435.618225 
	C745.148438,460.280457 745.141846,484.944305 745.294067,509.606384 
	C745.315125,513.019104 744.576843,514.100769 740.992798,514.033142 
	C728.499084,513.797180 715.998169,513.941956 703.000000,513.941956 
z"/>
<path fill="#FDFDFD" opacity="1.000000" stroke="none" 
	d="
M356.000549,431.246887 
	C372.664581,431.246948 388.830566,431.382843 404.991150,431.148560 
	C408.878204,431.092255 409.659943,432.360718 409.639404,435.951630 
	C409.498596,460.613403 409.498016,485.276825 409.645721,509.938538 
	C409.665527,513.248230 408.731110,514.021484 405.519989,514.012817 
	C365.360199,513.904541 325.199921,513.893860 285.040283,514.025635 
	C281.524689,514.037170 280.675323,513.118835 280.698059,509.645142 
	C280.858215,485.150208 280.909424,460.652527 280.666870,436.158966 
	C280.623138,431.741943 282.104279,431.127045 286.012695,431.157593 
	C309.174133,431.338654 332.337708,431.246887 356.000549,431.246887 
z"/>
<path fill="#FDFDFD" opacity="1.000000" stroke="none" 
	d="
M338.000610,688.246887 
	C360.645630,688.246948 382.791443,688.342834 404.934845,688.154724 
	C408.720520,688.122559 409.681366,689.200256 409.646484,692.888184 
	C409.470215,711.534912 409.463959,730.185303 409.654205,748.831787 
	C409.690674,752.408203 408.618530,753.171814 405.214935,753.161865 
	C365.087830,753.044861 324.960205,753.048218 284.833069,753.159058 
	C281.589935,753.168030 280.677704,752.338196 280.705536,749.055786 
	C280.865112,730.242188 280.865204,711.425964 280.707794,692.612305 
	C280.679352,689.215576 281.469177,688.118286 285.052887,688.158447 
	C302.533600,688.354248 320.017700,688.246948 338.000610,688.246887 
z"/>
<path fill="#FDFDFD" opacity="1.000000" stroke="none" 
	d="
M616.428101,734.999207 
	C616.428162,720.679382 616.581543,706.856628 616.333252,693.041077 
	C616.260437,688.990234 617.593994,688.150452 621.407959,688.163452 
	C661.202393,688.299011 700.997681,688.288452 740.792236,688.172058 
	C744.153259,688.162231 745.329468,688.859314 745.295410,692.458801 
	C745.117249,711.272278 745.153809,730.088745 745.271912,748.903198 
	C745.290894,751.922913 744.841003,753.187012 741.315735,753.174866 
	C701.021790,753.036194 660.726990,753.044800 620.432922,753.163330 
	C617.091980,753.173157 616.169922,752.196594 616.361145,748.981995 
	C616.627625,744.502197 616.428162,739.994690 616.428101,734.999207 
z"/>
<path fill="#FDFDFD" opacity="1.000000" stroke="none" 
	d="
M540.284424,149.610779 
	C542.275635,150.878220 543.490479,152.489182 542.747559,154.303131 
	C542.116577,155.843597 540.140320,154.798416 538.782227,155.031677 
	C538.304626,155.113708 537.768005,155.157471 537.315186,155.024734 
	C535.620361,154.527878 532.624512,156.300278 532.373840,153.897964 
	C532.083313,151.114166 534.463867,149.259399 537.522827,149.111679 
	C538.321777,149.073105 539.133667,149.305481 540.284424,149.610779 
z"/>
<path fill="#FDFDFD" opacity="1.000000" stroke="none" 
	d="
M480.479889,150.465179 
	C483.937195,148.622101 486.861755,148.648880 489.126099,151.711578 
	C491.023804,154.278305 490.652161,160.845108 488.627716,162.951050 
	C485.721222,165.974579 480.352203,164.970078 478.847382,160.975601 
	C477.499146,157.396912 477.618408,153.860107 480.479889,150.465179 
z"/>
</svg>